<mxfile host="app.diagrams.net" modified="2023-05-16T13:48:56.435Z" agent="Mozilla/5.0 (Windows NT 10.0; Win64; x64) AppleWebKit/537.36 (KHTML, like Gecko) Chrome/113.0.0.0 Safari/537.36" etag="58RSlThHLrxO_kEP-aV6" version="21.3.2" type="device">
  <diagram name="Page-1" id="c4acf3e9-155e-7222-9cf6-157b1a14988f">
    <mxGraphModel dx="3241" dy="2240" grid="1" gridSize="10" guides="1" tooltips="1" connect="1" arrows="1" fold="1" page="1" pageScale="1" pageWidth="850" pageHeight="1100" background="none" math="0" shadow="0">
      <root>
        <mxCell id="0" />
        <mxCell id="1" parent="0" />
        <mxCell id="17acba5748e5396b-1" value="&lt;font style=&quot;font-size: 12px;&quot;&gt;&lt;b&gt;Task 8&lt;/b&gt;&lt;/font&gt;" style="shape=umlFrame;whiteSpace=wrap;html=1;rounded=0;shadow=0;comic=0;labelBackgroundColor=none;strokeWidth=6;fontFamily=Verdana;fontSize=10;align=center;strokeColor=#7D1515;" parent="1" vertex="1">
          <mxGeometry x="-50" y="-50" width="1750" height="1170" as="geometry" />
        </mxCell>
        <mxCell id="5d2195bd80daf111-18" value="&lt;p style=&quot;margin:0px;margin-top:4px;text-align:center;&quot;&gt;&lt;i&gt;&amp;lt;&amp;lt;Interface&amp;gt;&amp;gt;&lt;/i&gt;&lt;br&gt;&lt;b&gt;ICloneable&lt;/b&gt;&lt;/p&gt;" style="verticalAlign=top;align=left;overflow=fill;fontSize=12;fontFamily=Helvetica;html=1;rounded=0;shadow=0;comic=0;labelBackgroundColor=none;strokeWidth=1" parent="1" vertex="1">
          <mxGeometry x="680" y="650" width="190" height="40" as="geometry" />
        </mxCell>
        <mxCell id="TSDJcPFWtv5Z8IVnVE6S-1" value="&lt;p style=&quot;margin:0px;margin-top:4px;text-align:center;&quot;&gt;&lt;i&gt;&amp;lt;&amp;lt;Class C#&amp;gt;&amp;gt;&lt;/i&gt;&lt;/p&gt;&lt;p style=&quot;margin:0px;margin-top:4px;text-align:center;&quot;&gt;&lt;b&gt;&lt;u&gt;Program&lt;/u&gt;&lt;/b&gt;&lt;/p&gt;" style="verticalAlign=top;align=left;overflow=fill;fontSize=12;fontFamily=Helvetica;html=1;rounded=0;shadow=0;comic=0;labelBackgroundColor=none;strokeWidth=1" vertex="1" parent="1">
          <mxGeometry x="341" y="100" width="190" height="40" as="geometry" />
        </mxCell>
        <mxCell id="TSDJcPFWtv5Z8IVnVE6S-2" value="&lt;p style=&quot;margin:0px;margin-top:4px;text-align:center;&quot;&gt;&lt;i&gt;&amp;lt;&amp;lt;Interface&amp;gt;&amp;gt;&lt;/i&gt;&lt;br&gt;&lt;b&gt;IEqutable: RoadLanes&lt;/b&gt;&lt;/p&gt;" style="verticalAlign=top;align=left;overflow=fill;fontSize=12;fontFamily=Helvetica;html=1;rounded=0;shadow=0;comic=0;labelBackgroundColor=none;strokeWidth=1" vertex="1" parent="1">
          <mxGeometry x="1275" y="975" width="190" height="40" as="geometry" />
        </mxCell>
        <mxCell id="TSDJcPFWtv5Z8IVnVE6S-3" value="&lt;p style=&quot;margin:0px;margin-top:4px;text-align:center;&quot;&gt;&lt;i&gt;&amp;lt;&amp;lt;Class C#&amp;gt;&amp;gt;&lt;/i&gt;&lt;/p&gt;&lt;p style=&quot;margin:0px;margin-top:4px;text-align:center;&quot;&gt;&lt;b&gt;&lt;u&gt;Console&lt;/u&gt;&lt;/b&gt;&lt;/p&gt;&lt;p style=&quot;margin:0px;margin-left:4px;&quot;&gt;&lt;br&gt;&lt;/p&gt;" style="verticalAlign=top;align=left;overflow=fill;fontSize=12;fontFamily=Helvetica;html=1;rounded=0;shadow=0;comic=0;labelBackgroundColor=none;strokeWidth=1" vertex="1" parent="1">
          <mxGeometry x="91" y="40" width="190" height="40" as="geometry" />
        </mxCell>
        <mxCell id="TSDJcPFWtv5Z8IVnVE6S-4" value="&lt;p style=&quot;margin:0px;margin-top:4px;text-align:center;&quot;&gt;&lt;i&gt;&amp;lt;&amp;lt;Class C#&amp;gt;&amp;gt;&lt;/i&gt;&lt;/p&gt;&lt;p style=&quot;margin:0px;margin-top:4px;text-align:center;&quot;&gt;&lt;b&gt;SimulatorsGroup&lt;/b&gt;&lt;/p&gt;&lt;hr size=&quot;1&quot;&gt;&lt;p style=&quot;margin:0px;margin-left:4px;&quot;&gt;-_simulators: Dictionary&amp;lt;int, CrossroadsSimulator&amp;gt;&lt;/p&gt;&lt;p style=&quot;margin:0px;margin-left:4px;&quot;&gt;-_simulatorLogs: Dictionary&amp;lt;int, Logs&amp;gt;&lt;/p&gt;&lt;hr size=&quot;1&quot;&gt;&lt;p style=&quot;margin:0px;margin-left:4px;&quot;&gt;+SimulatorGroups(): SimulatorGroups&lt;/p&gt;&lt;p style=&quot;margin:0px;margin-left:4px;&quot;&gt;+AddSimulator(simulator: CrossroadsSimulator): void&lt;/p&gt;&lt;p style=&quot;margin:0px;margin-left:4px;&quot;&gt;+StartSimulator(ID: int, timeCeil: double): void&lt;/p&gt;&lt;p style=&quot;margin:0px;margin-left:4px;&quot;&gt;+ToString(): string&lt;/p&gt;" style="verticalAlign=top;align=left;overflow=fill;fontSize=12;fontFamily=Helvetica;html=1;rounded=0;shadow=0;comic=0;labelBackgroundColor=none;strokeWidth=1" vertex="1" parent="1">
          <mxGeometry x="571" y="150" width="290" height="150" as="geometry" />
        </mxCell>
        <mxCell id="TSDJcPFWtv5Z8IVnVE6S-5" value="&lt;p style=&quot;margin:0px;margin-top:4px;text-align:center;&quot;&gt;&lt;i&gt;&amp;lt;&amp;lt;Class C#&amp;gt;&amp;gt;&lt;/i&gt;&lt;/p&gt;&lt;p style=&quot;margin:0px;margin-top:4px;text-align:center;&quot;&gt;&lt;b&gt;&lt;u&gt;Validator&lt;/u&gt;&lt;/b&gt;&lt;/p&gt;&lt;hr size=&quot;1&quot;&gt;&lt;p style=&quot;margin:0px;margin-left:4px;&quot;&gt;+CheckOppositeDirections(in from: GeographicalDirection,&amp;nbsp;&lt;/p&gt;&lt;p style=&quot;margin:0px;margin-left:4px;&quot;&gt;in to: GeographicalDirection): bool&lt;/p&gt;&lt;p style=&quot;margin:0px;margin-left:4px;&quot;&gt;+CheckPerpendicularDirections(in from: GeographicalDirection,&amp;nbsp;&lt;/p&gt;&lt;p style=&quot;border-color: var(--border-color); margin: 0px 0px 0px 4px;&quot;&gt;in to: GeographicalDirection): bool&lt;/p&gt;&lt;p style=&quot;border-color: var(--border-color); margin: 0px 0px 0px 4px;&quot;&gt;-CheckRotaryAccess(in values: IEnumerable&amp;lt;uint&amp;gt;, in trafficLight: TrafficLight,&amp;nbsp;&lt;/p&gt;&lt;p style=&quot;border-color: var(--border-color); margin: 0px 0px 0px 4px;&quot;&gt;wishedLane: uint, ref hasLeftRotary: Tuple&amp;lt;bool, uint&amp;gt;, ref hasRightRotary: bool): bool&lt;/p&gt;&lt;p style=&quot;border-color: var(--border-color); margin: 0px 0px 0px 4px;&quot;&gt;+CheckTrafficLightOnLane(in values: IEnumerable&amp;lt;uint&amp;gt;, in trafficLight: TrafficLight,&amp;nbsp;&lt;/p&gt;&lt;p style=&quot;border-color: var(--border-color); margin: 0px 0px 0px 4px;&quot;&gt;&lt;span style=&quot;background-color: initial;&quot;&gt;wishedLane: uint, ref hasLeftRotary: Tuple&amp;lt;bool, uint&amp;gt;, ref hasRightRotary: bool&lt;/span&gt;): bool&lt;/p&gt;&lt;p style=&quot;border-color: var(--border-color); margin: 0px 0px 0px 4px;&quot;&gt;+CheckOppositeGroups(in roadLanes: List&amp;lt;RoadLanes&amp;gt;): bool&lt;/p&gt;&lt;p style=&quot;border-color: var(--border-color); margin: 0px 0px 0px 4px;&quot;&gt;+MakeOppositeGroups(roadLanesGroup: List&amp;lt;RoadLanes&amp;gt;): List&amp;lt;List&amp;lt;RoadLanes&amp;gt;&amp;gt;&lt;/p&gt;&lt;p style=&quot;border-color: var(--border-color); margin: 0px 0px 0px 4px;&quot;&gt;+CheckOppositeGroupTimersAsynchronization(in roadLanesGroup: List&amp;lt;RoadLanes&amp;gt;): bool&lt;/p&gt;&lt;p style=&quot;border-color: var(--border-color); margin: 0px 0px 0px 4px;&quot;&gt;+CheckTimersPeriodicity(in roadLanesGroup: List&amp;lt;RoadLanes&amp;gt;): bool&lt;/p&gt;&lt;p style=&quot;border-color: var(--border-color); margin: 0px 0px 0px 4px;&quot;&gt;+CheckRoadLaneFullness(in roadLanes: RoadLanes): bool&lt;/p&gt;" style="verticalAlign=top;align=left;overflow=fill;fontSize=12;fontFamily=Helvetica;html=1;rounded=0;shadow=0;comic=0;labelBackgroundColor=none;strokeWidth=1" vertex="1" parent="1">
          <mxGeometry x="1060" y="170" width="505" height="240" as="geometry" />
        </mxCell>
        <mxCell id="TSDJcPFWtv5Z8IVnVE6S-6" value="&lt;p style=&quot;margin:0px;margin-top:4px;text-align:center;&quot;&gt;&lt;i&gt;&amp;lt;&amp;lt;Class C#&amp;gt;&amp;gt;&lt;/i&gt;&lt;/p&gt;&lt;p style=&quot;margin:0px;margin-top:4px;text-align:center;&quot;&gt;&lt;b&gt;&lt;u&gt;FileWorker&lt;/u&gt;&lt;/b&gt;&lt;/p&gt;&lt;hr size=&quot;1&quot;&gt;&lt;p style=&quot;margin:0px;margin-left:4px;&quot;&gt;&lt;u&gt;-CreateScheme(index: int, rl: HashSet&amp;lt;RoadLanes&amp;gt;)&lt;/u&gt;: Scheme&lt;/p&gt;&lt;p style=&quot;margin:0px;margin-left:4px;&quot;&gt;&lt;u&gt;-ReadCrossroadsSchemePairFromFile(path: string)&lt;/u&gt;: Tuple&amp;lt;Crossroads, Scheme&amp;gt;&lt;/p&gt;&lt;p style=&quot;margin:0px;margin-left:4px;&quot;&gt;&lt;u&gt;+CreateCrossroadsGroupSimulator(paths: params string[])&lt;/u&gt;: SimulatorsGroup&lt;/p&gt;" style="verticalAlign=top;align=left;overflow=fill;fontSize=12;fontFamily=Helvetica;html=1;rounded=0;shadow=0;comic=0;labelBackgroundColor=none;strokeWidth=1" vertex="1" parent="1">
          <mxGeometry x="573" y="30" width="440" height="100" as="geometry" />
        </mxCell>
        <mxCell id="TSDJcPFWtv5Z8IVnVE6S-7" value="&lt;p style=&quot;margin:0px;margin-top:4px;text-align:center;&quot;&gt;&lt;i&gt;&amp;lt;&amp;lt;Class C#&amp;gt;&amp;gt;&lt;/i&gt;&lt;/p&gt;&lt;p style=&quot;margin:0px;margin-top:4px;text-align:center;&quot;&gt;&lt;b&gt;CrossroadsSimulator&lt;/b&gt;&lt;/p&gt;&lt;hr size=&quot;1&quot;&gt;&lt;p style=&quot;margin:0px;margin-left:4px;&quot;&gt;-_logs: Logs&lt;/p&gt;&lt;p style=&quot;margin:0px;margin-left:4px;&quot;&gt;-_crossroads: Crossroads&lt;/p&gt;&lt;p style=&quot;margin:0px;margin-left:4px;&quot;&gt;-_scheme: Scheme&lt;/p&gt;&lt;p style=&quot;margin:0px;margin-left:4px;&quot;&gt;-_timer: double&lt;/p&gt;&lt;hr size=&quot;1&quot;&gt;&lt;p style=&quot;margin:0px;margin-left:4px;&quot;&gt;+CrossroadsSimulator(crossroads: Crossroads,&amp;nbsp;&lt;/p&gt;&lt;p style=&quot;margin:0px;margin-left:4px;&quot;&gt;scheme: Scheme): CrossroadsSimulator&lt;/p&gt;&lt;p style=&quot;margin:0px;margin-left:4px;&quot;&gt;-MakeTimersTable(): Tuple&amp;lt;double[,], double[],&amp;nbsp;&lt;/p&gt;&lt;p style=&quot;margin:0px;margin-left:4px;&quot;&gt;Dictionary&amp;lt;int, Tuple&amp;lt;TrafficLight, double[]&amp;gt;&amp;gt;&lt;/p&gt;&lt;p style=&quot;margin:0px;margin-left:4px;&quot;&gt;-ChangeColours(trafficLightIndexes: IEnumerable&amp;lt;int&amp;gt;,&lt;/p&gt;&lt;p style=&quot;margin:0px;margin-left:4px;&quot;&gt;trafficLightsAccess: Dictionary&amp;lt;int, Tuple&amp;lt;TrafficLight, double[]&amp;gt;&amp;gt;): void&lt;/p&gt;&lt;p style=&quot;margin:0px;margin-left:4px;&quot;&gt;+Start(timeCeiling: double): void&lt;/p&gt;&lt;p style=&quot;margin:0px;margin-left:4px;&quot;&gt;+ToString(): string&lt;/p&gt;&lt;p style=&quot;margin:0px;margin-left:4px;&quot;&gt;+Clone(): object&lt;/p&gt;&lt;p style=&quot;margin:0px;margin-left:4px;&quot;&gt;&lt;br&gt;&lt;/p&gt;&lt;p style=&quot;margin:0px;margin-left:4px;&quot;&gt;&lt;br&gt;&lt;/p&gt;&lt;p style=&quot;margin:0px;margin-left:4px;&quot;&gt;&lt;br&gt;&lt;/p&gt;" style="verticalAlign=top;align=left;overflow=fill;fontSize=12;fontFamily=Helvetica;html=1;rounded=0;shadow=0;comic=0;labelBackgroundColor=none;strokeWidth=1" vertex="1" parent="1">
          <mxGeometry x="573" y="360" width="390" height="250" as="geometry" />
        </mxCell>
        <mxCell id="TSDJcPFWtv5Z8IVnVE6S-8" value="&lt;p style=&quot;margin:0px;margin-top:4px;text-align:center;&quot;&gt;&lt;i&gt;&amp;lt;&amp;lt;Class C#&amp;gt;&amp;gt;&lt;/i&gt;&lt;/p&gt;&lt;p style=&quot;margin:0px;margin-top:4px;text-align:center;&quot;&gt;&lt;b&gt;Logs&lt;/b&gt;&lt;/p&gt;&lt;hr size=&quot;1&quot;&gt;&lt;p style=&quot;margin:0px;margin-left:4px;&quot;&gt;-_logs: List&amp;lt;string&amp;gt;&lt;/p&gt;&lt;hr size=&quot;1&quot;&gt;&lt;p style=&quot;margin:0px;margin-left:4px;&quot;&gt;+Logs(): Logs&lt;/p&gt;&lt;p style=&quot;margin:0px;margin-left:4px;&quot;&gt;+AddLogs(logString: string): void&lt;/p&gt;&lt;p style=&quot;margin:0px;margin-left:4px;&quot;&gt;+ToString(): string&lt;/p&gt;&lt;p style=&quot;margin:0px;margin-left:4px;&quot;&gt;+Clone(): object&lt;/p&gt;" style="verticalAlign=top;align=left;overflow=fill;fontSize=12;fontFamily=Helvetica;html=1;rounded=0;shadow=0;comic=0;labelBackgroundColor=none;strokeWidth=1" vertex="1" parent="1">
          <mxGeometry x="288" y="280" width="190" height="140" as="geometry" />
        </mxCell>
        <mxCell id="TSDJcPFWtv5Z8IVnVE6S-9" value="&lt;p style=&quot;margin:0px;margin-top:4px;text-align:center;&quot;&gt;&lt;i&gt;&amp;lt;&amp;lt;Class C#&amp;gt;&amp;gt;&lt;/i&gt;&lt;/p&gt;&lt;p style=&quot;margin:0px;margin-top:4px;text-align:center;&quot;&gt;&lt;b&gt;Crossroads&lt;/b&gt;&lt;/p&gt;&lt;hr size=&quot;1&quot;&gt;&lt;p style=&quot;margin:0px;margin-left:4px;&quot;&gt;-_roadLanesSet: HashSet&amp;lt;RoadLanes&amp;gt;&lt;/p&gt;&lt;hr size=&quot;1&quot;&gt;&lt;p style=&quot;margin:0px;margin-left:4px;&quot;&gt;+Crossroads(): Crossroads&lt;br&gt;&lt;/p&gt;&lt;p style=&quot;margin:0px;margin-left:4px;&quot;&gt;+GetRoadLanesOriginal(): HashSet&amp;lt;RoadLanes&amp;gt;&lt;/p&gt;&lt;p style=&quot;margin:0px;margin-left:4px;&quot;&gt;+AddLanes(roadLanes: RoadLanes): void&lt;/p&gt;&lt;p style=&quot;margin:0px;margin-left:4px;&quot;&gt;+Clone(): object&lt;/p&gt;&lt;p style=&quot;margin:0px;margin-left:4px;&quot;&gt;+ToString(): string&lt;/p&gt;" style="verticalAlign=top;align=left;overflow=fill;fontSize=12;fontFamily=Helvetica;html=1;rounded=0;shadow=0;comic=0;labelBackgroundColor=none;strokeWidth=1" vertex="1" parent="1">
          <mxGeometry x="995" y="550" width="280" height="150" as="geometry" />
        </mxCell>
        <mxCell id="TSDJcPFWtv5Z8IVnVE6S-10" value="&lt;p style=&quot;margin:0px;margin-top:4px;text-align:center;&quot;&gt;&lt;i&gt;&amp;lt;&amp;lt;Class C#&amp;gt;&amp;gt;&lt;/i&gt;&lt;/p&gt;&lt;p style=&quot;margin:0px;margin-top:4px;text-align:center;&quot;&gt;&lt;b&gt;&lt;i&gt;Scheme&lt;/i&gt;&lt;/b&gt;&lt;/p&gt;&lt;hr size=&quot;1&quot;&gt;&lt;p style=&quot;margin:0px;margin-left:4px;&quot;&gt;#_lanes: HashSet&amp;lt;RoadLanes&amp;gt;&lt;/p&gt;&lt;hr size=&quot;1&quot;&gt;&lt;p style=&quot;margin:0px;margin-left:4px;&quot;&gt;#Scheme(roadLanes: HashSet&amp;lt;RoadLanes&amp;gt;): Scheme&lt;/p&gt;&lt;p style=&quot;margin:0px;margin-left:4px;&quot;&gt;+&lt;i&gt;CheckSystemPeriodical()&lt;/i&gt;: void&lt;/p&gt;&lt;p style=&quot;margin:0px;margin-left:4px;&quot;&gt;+&lt;i&gt;CheckSystemConditionals()&lt;/i&gt;: void&lt;/p&gt;&lt;p style=&quot;margin:0px;margin-left:4px;&quot;&gt;+&lt;i&gt;Clone()&lt;/i&gt;: object&lt;/p&gt;" style="verticalAlign=top;align=left;overflow=fill;fontSize=12;fontFamily=Helvetica;html=1;rounded=0;shadow=0;comic=0;labelBackgroundColor=none;strokeWidth=1" vertex="1" parent="1">
          <mxGeometry x="91" y="454" width="310" height="140" as="geometry" />
        </mxCell>
        <mxCell id="TSDJcPFWtv5Z8IVnVE6S-12" value="&lt;p style=&quot;margin:0px;margin-top:4px;text-align:center;&quot;&gt;&lt;i&gt;&amp;lt;&amp;lt;Class C#&amp;gt;&amp;gt;&lt;/i&gt;&lt;/p&gt;&lt;p style=&quot;margin:0px;margin-top:4px;text-align:center;&quot;&gt;&lt;b&gt;RoadLanes&lt;/b&gt;&lt;/p&gt;&lt;hr size=&quot;1&quot;&gt;&lt;p style=&quot;margin:0px;margin-left:4px;&quot;&gt;-_hasLeftRotary: Tuple&amp;lt;bool, uint&amp;gt;&lt;/p&gt;&lt;p style=&quot;margin:0px;margin-left:4px;&quot;&gt;-_hasRightRotary: bool&lt;/p&gt;&lt;p style=&quot;margin:0px;margin-left:4px;&quot;&gt;-_part: GeographicalDirection&lt;/p&gt;&lt;p style=&quot;margin:0px;margin-left:4px;&quot;&gt;-_lanes: Dictionary&amp;lt;TrafficLight, Tuple&amp;lt;ColoursTimer, uint&amp;gt;&amp;gt;&lt;/p&gt;&lt;hr size=&quot;1&quot;&gt;&lt;p style=&quot;margin:0px;margin-left:4px;&quot;&gt;+RoadLanes(in part: GeographicalDirection): RoadLanes&lt;/p&gt;&lt;p style=&quot;margin:0px;margin-left:4px;&quot;&gt;+AddLane(trafficLight: TrafficLight, timer: ColoursTimer,&amp;nbsp;&lt;/p&gt;&lt;p style=&quot;margin:0px;margin-left:4px;&quot;&gt;lane: uint, possibleMoveLeft: bool): void&lt;/p&gt;&lt;p style=&quot;margin:0px;margin-left:4px;&quot;&gt;+this[index: int]: TrafficLight&lt;/p&gt;&lt;p style=&quot;margin:0px;margin-left:4px;&quot;&gt;+Clone(): object&lt;/p&gt;&lt;p style=&quot;margin:0px;margin-left:4px;&quot;&gt;+GetHastCode(): int&lt;/p&gt;&lt;p style=&quot;margin:0px;margin-left:4px;&quot;&gt;+Equals(other: RoadLanes): bool&lt;/p&gt;&lt;p style=&quot;margin:0px;margin-left:4px;&quot;&gt;+ToString(): string&lt;/p&gt;&lt;p style=&quot;margin:0px;margin-left:4px;&quot;&gt;-SortLanes(): void&lt;/p&gt;&lt;p style=&quot;margin:0px;margin-left:4px;&quot;&gt;&lt;br&gt;&lt;/p&gt;" style="verticalAlign=top;align=left;overflow=fill;fontSize=12;fontFamily=Helvetica;html=1;rounded=0;shadow=0;comic=0;labelBackgroundColor=none;strokeWidth=1" vertex="1" parent="1">
          <mxGeometry x="920" y="760" width="340" height="255" as="geometry" />
        </mxCell>
        <mxCell id="TSDJcPFWtv5Z8IVnVE6S-13" value="&lt;p style=&quot;margin:0px;margin-top:4px;text-align:center;&quot;&gt;&lt;i&gt;&amp;lt;&amp;lt;Class C#&amp;gt;&amp;gt;&lt;/i&gt;&lt;/p&gt;&lt;p style=&quot;margin:0px;margin-top:4px;text-align:center;&quot;&gt;&lt;b&gt;TrafficLight&lt;/b&gt;&lt;/p&gt;&lt;hr size=&quot;1&quot;&gt;&lt;p style=&quot;margin:0px;margin-left:4px;&quot;&gt;-_direction: Direction&lt;/p&gt;&lt;p style=&quot;margin:0px;margin-left:4px;&quot;&gt;-_colour: TrafficColour&lt;/p&gt;&lt;hr size=&quot;1&quot;&gt;&lt;p style=&quot;border-color: var(--border-color); margin: 0px 0px 0px 4px;&quot;&gt;+TrafficLight(in directionFrom: GeographicalDirection,&amp;nbsp;&lt;/p&gt;&lt;p style=&quot;border-color: var(--border-color); margin: 0px 0px 0px 4px;&quot;&gt;in directionTo: GeographicalDirection,&amp;nbsp;&lt;/p&gt;&lt;p style=&quot;border-color: var(--border-color); margin: 0px 0px 0px 4px;&quot;&gt;in directionType: DirectionScheme,&amp;nbsp;&lt;/p&gt;&lt;p style=&quot;border-color: var(--border-color); margin: 0px 0px 0px 4px;&quot;&gt;in trafficColour: TrafficColour): TrafficLight&lt;/p&gt;&lt;p style=&quot;border-color: var(--border-color); margin: 0px 0px 0px 4px;&quot;&gt;+ColourNext(): void&lt;/p&gt;&lt;p style=&quot;border-color: var(--border-color); margin: 0px 0px 0px 4px;&quot;&gt;+CompareTo(other: TrafficLight): int&lt;/p&gt;&lt;p style=&quot;border-color: var(--border-color); margin: 0px 0px 0px 4px;&quot;&gt;+Clone(): object&amp;nbsp;&lt;/p&gt;" style="verticalAlign=top;align=left;overflow=fill;fontSize=12;fontFamily=Helvetica;html=1;rounded=0;shadow=0;comic=0;labelBackgroundColor=none;strokeWidth=1" vertex="1" parent="1">
          <mxGeometry x="591" y="760" width="300" height="200" as="geometry" />
        </mxCell>
        <mxCell id="TSDJcPFWtv5Z8IVnVE6S-14" value="&lt;p style=&quot;margin:0px;margin-top:4px;text-align:center;&quot;&gt;&lt;i&gt;&amp;lt;&amp;lt;Structure&amp;gt;&amp;gt;&lt;/i&gt;&lt;/p&gt;&lt;p style=&quot;margin:0px;margin-top:4px;text-align:center;&quot;&gt;&lt;b&gt;ColoursTimer&lt;/b&gt;&lt;/p&gt;&lt;hr size=&quot;1&quot;&gt;&lt;p style=&quot;margin:0px;margin-left:4px;&quot;&gt;&lt;u&gt;+MIN_TIMER&lt;/u&gt;: double&lt;/p&gt;&lt;p style=&quot;margin:0px;margin-left:4px;&quot;&gt;&lt;u&gt;+COLOURS_CHANGING_AMOUNT&lt;/u&gt;: uint&lt;/p&gt;&lt;p style=&quot;margin:0px;margin-left:4px;&quot;&gt;&lt;u&gt;+COLOUR_NAME_MAX_LENGTH&lt;/u&gt;: uint&lt;/p&gt;&lt;p style=&quot;margin:0px;margin-left:4px;&quot;&gt;-R_Y: double&lt;/p&gt;&lt;p style=&quot;margin:0px;margin-left:4px;&quot;&gt;-Y_G: double&lt;/p&gt;&lt;p style=&quot;margin:0px;margin-left:4px;&quot;&gt;-G_Y: double&lt;/p&gt;&lt;p style=&quot;margin:0px;margin-left:4px;&quot;&gt;-Y_R: double&lt;/p&gt;&lt;hr size=&quot;1&quot;&gt;&lt;p style=&quot;margin:0px;margin-left:4px;&quot;&gt;+ColoursTimer(red_yellow: double,&amp;nbsp;&lt;/p&gt;&lt;p style=&quot;margin:0px;margin-left:4px;&quot;&gt;yellow_green:&amp;nbsp;&lt;/p&gt;&lt;p style=&quot;margin:0px;margin-left:4px;&quot;&gt;double, green_yellow:&amp;nbsp;&lt;/p&gt;&lt;p style=&quot;margin:0px;margin-left:4px;&quot;&gt;double, yellow_red: double): ColoursTimer&lt;/p&gt;&lt;p style=&quot;margin:0px;margin-left:4px;&quot;&gt;+findTimingPeriodicity(startsFromRed: bool): List&amp;lt;double&amp;gt;&lt;/p&gt;" style="verticalAlign=top;align=left;overflow=fill;fontSize=12;fontFamily=Helvetica;html=1;rounded=0;shadow=0;comic=0;labelBackgroundColor=none;strokeWidth=1" vertex="1" parent="1">
          <mxGeometry x="45" y="810" width="320" height="240" as="geometry" />
        </mxCell>
        <mxCell id="TSDJcPFWtv5Z8IVnVE6S-15" value="&lt;p style=&quot;margin:0px;margin-top:4px;text-align:center;&quot;&gt;&lt;i&gt;&amp;lt;&amp;lt;Structure&amp;gt;&amp;gt;&lt;/i&gt;&lt;/p&gt;&lt;p style=&quot;margin:0px;margin-top:4px;text-align:center;&quot;&gt;&lt;b&gt;Direction&lt;/b&gt;&lt;/p&gt;&lt;hr size=&quot;1&quot;&gt;&lt;p style=&quot;margin:0px;margin-left:4px;&quot;&gt;+DIRECTION_NAME_MAX_LENGTH: uint&lt;br&gt;+SCHEME_NAME_MAX_LENGTH: uint&lt;/p&gt;&lt;p style=&quot;margin:0px;margin-left:4px;&quot;&gt;-_from: GeographicalDirection&lt;/p&gt;&lt;p style=&quot;margin:0px;margin-left:4px;&quot;&gt;-_to: GeographicalDirection&lt;/p&gt;&lt;p style=&quot;margin:0px;margin-left:4px;&quot;&gt;-_scheme: DirectionScheme&lt;/p&gt;&lt;hr size=&quot;1&quot;&gt;&lt;p style=&quot;margin:0px;margin-left:4px;&quot;&gt;+Direction(in from: GeographicalDirection,&amp;nbsp;&lt;/p&gt;&lt;p style=&quot;margin:0px;margin-left:4px;&quot;&gt;in to: GeographicalDirection,&amp;nbsp;&lt;/p&gt;&lt;p style=&quot;margin:0px;margin-left:4px;&quot;&gt;in scheme: DirectionScheme): Direction&lt;/p&gt;" style="verticalAlign=top;align=left;overflow=fill;fontSize=12;fontFamily=Helvetica;html=1;rounded=0;shadow=0;comic=0;labelBackgroundColor=none;strokeWidth=1" vertex="1" parent="1">
          <mxGeometry x="1440" y="510" width="240" height="180" as="geometry" />
        </mxCell>
        <mxCell id="TSDJcPFWtv5Z8IVnVE6S-22" value="&lt;p style=&quot;margin:0px;margin-top:4px;text-align:center;&quot;&gt;&lt;i&gt;&amp;lt;&amp;lt;Delegate&amp;gt;&amp;gt;&lt;/i&gt;&lt;/p&gt;&lt;p style=&quot;margin:0px;margin-top:4px;text-align:center;&quot;&gt;&lt;b&gt;ColourWork(): string&lt;/b&gt;&lt;/p&gt;&lt;p style=&quot;margin:0px;margin-left:4px;&quot;&gt;&lt;br&gt;&lt;/p&gt;" style="verticalAlign=top;align=left;overflow=fill;fontSize=12;fontFamily=Helvetica;html=1;rounded=0;shadow=0;comic=0;labelBackgroundColor=none;strokeWidth=1" vertex="1" parent="1">
          <mxGeometry x="60" y="280" width="190" height="40" as="geometry" />
        </mxCell>
        <mxCell id="TSDJcPFWtv5Z8IVnVE6S-23" value="&lt;p style=&quot;margin:0px;margin-top:4px;text-align:center;&quot;&gt;&lt;i&gt;&amp;lt;&amp;lt;Event&amp;gt;&amp;gt;&lt;/i&gt;&lt;/p&gt;&lt;p style=&quot;margin:0px;margin-top:4px;text-align:center;&quot;&gt;&lt;b&gt;ColourChanged: ColourWork&lt;/b&gt;&lt;/p&gt;&lt;p style=&quot;margin:0px;margin-left:4px;&quot;&gt;&lt;br&gt;&lt;/p&gt;" style="verticalAlign=top;align=left;overflow=fill;fontSize=12;fontFamily=Helvetica;html=1;rounded=0;shadow=0;comic=0;labelBackgroundColor=none;strokeWidth=1" vertex="1" parent="1">
          <mxGeometry x="120" y="170" width="190" height="40" as="geometry" />
        </mxCell>
        <mxCell id="TSDJcPFWtv5Z8IVnVE6S-24" value="&lt;p style=&quot;margin:0px;margin-top:4px;text-align:center;&quot;&gt;&lt;i&gt;&amp;lt;&amp;lt;Interface&amp;gt;&amp;gt;&lt;/i&gt;&lt;br&gt;&lt;b&gt;IComparable: TrafficLight&lt;/b&gt;&lt;/p&gt;" style="verticalAlign=top;align=left;overflow=fill;fontSize=12;fontFamily=Helvetica;html=1;rounded=0;shadow=0;comic=0;labelBackgroundColor=none;strokeWidth=1" vertex="1" parent="1">
          <mxGeometry x="373" y="825" width="190" height="40" as="geometry" />
        </mxCell>
        <mxCell id="TSDJcPFWtv5Z8IVnVE6S-25" value="&lt;p style=&quot;border-color: var(--border-color); margin: 4px 0px 0px; text-align: center;&quot;&gt;&lt;i style=&quot;border-color: var(--border-color);&quot;&gt;&amp;lt;&amp;lt;Enumeration&amp;gt;&amp;gt;&lt;/i&gt;&lt;br style=&quot;border-color: var(--border-color);&quot;&gt;&lt;/p&gt;&lt;p style=&quot;border-color: var(--border-color); margin: 4px 0px 0px; text-align: center;&quot;&gt;&lt;b style=&quot;border-color: var(--border-color);&quot;&gt;TrafficColour: sbyte&lt;/b&gt;&lt;/p&gt;&lt;hr size=&quot;1&quot;&gt;&lt;p style=&quot;margin:0px;margin-left:4px;&quot;&gt;Red = 0,&lt;/p&gt;&lt;p style=&quot;margin:0px;margin-left:4px;&quot;&gt;YellowBR = 1,&lt;/p&gt;&lt;p style=&quot;margin:0px;margin-left:4px;&quot;&gt;YellowBG = 2,&lt;/p&gt;&lt;p style=&quot;margin:0px;margin-left:4px;&quot;&gt;Green = 3&lt;/p&gt;" style="verticalAlign=top;align=left;overflow=fill;fontSize=12;fontFamily=Helvetica;html=1;rounded=0;shadow=0;comic=0;labelBackgroundColor=none;strokeWidth=1" vertex="1" parent="1">
          <mxGeometry x="373" y="946" width="190" height="110" as="geometry" />
        </mxCell>
        <mxCell id="TSDJcPFWtv5Z8IVnVE6S-26" value="&lt;p style=&quot;border-color: var(--border-color); margin: 4px 0px 0px; text-align: center;&quot;&gt;&lt;i style=&quot;border-color: var(--border-color);&quot;&gt;&amp;lt;&amp;lt;Enumeration&amp;gt;&amp;gt;&lt;/i&gt;&lt;br style=&quot;border-color: var(--border-color);&quot;&gt;&lt;/p&gt;&lt;p style=&quot;border-color: var(--border-color); margin: 4px 0px 0px; text-align: center;&quot;&gt;&lt;b style=&quot;border-color: var(--border-color);&quot;&gt;GeographicalDirection: sbyte&lt;/b&gt;&lt;/p&gt;&lt;hr size=&quot;1&quot;&gt;&lt;p style=&quot;margin:0px;margin-left:4px;&quot;&gt;North = 1,&lt;/p&gt;&lt;p style=&quot;margin:0px;margin-left:4px;&quot;&gt;NorthEast = 2,&lt;/p&gt;&lt;p style=&quot;margin:0px;margin-left:4px;&quot;&gt;East = 3,&lt;/p&gt;&lt;p style=&quot;margin:0px;margin-left:4px;&quot;&gt;SouthEast = 4,&lt;/p&gt;&lt;p style=&quot;margin:0px;margin-left:4px;&quot;&gt;South = 5,&lt;/p&gt;&lt;p style=&quot;margin:0px;margin-left:4px;&quot;&gt;SouthWest = 6,&lt;/p&gt;&lt;p style=&quot;margin:0px;margin-left:4px;&quot;&gt;West = 7,&lt;/p&gt;&lt;p style=&quot;margin:0px;margin-left:4px;&quot;&gt;NorthWest = 8&lt;/p&gt;" style="verticalAlign=top;align=left;overflow=fill;fontSize=12;fontFamily=Helvetica;html=1;rounded=0;shadow=0;comic=0;labelBackgroundColor=none;strokeWidth=1" vertex="1" parent="1">
          <mxGeometry x="1390" y="760" width="190" height="170" as="geometry" />
        </mxCell>
        <mxCell id="TSDJcPFWtv5Z8IVnVE6S-27" value="&lt;p style=&quot;border-color: var(--border-color); margin: 4px 0px 0px; text-align: center;&quot;&gt;&lt;i style=&quot;border-color: var(--border-color);&quot;&gt;&amp;lt;&amp;lt;Enumeration&amp;gt;&amp;gt;&lt;/i&gt;&lt;br style=&quot;border-color: var(--border-color);&quot;&gt;&lt;/p&gt;&lt;p style=&quot;border-color: var(--border-color); margin: 4px 0px 0px; text-align: center;&quot;&gt;&lt;b style=&quot;border-color: var(--border-color);&quot;&gt;DirectionScheme: sbyte&lt;/b&gt;&lt;/p&gt;&lt;hr size=&quot;1&quot;&gt;&lt;p style=&quot;margin:0px;margin-left:4px;&quot;&gt;Rectilinear = 0,&lt;/p&gt;&lt;p style=&quot;margin:0px;margin-left:4px;&quot;&gt;Rotary = 1&lt;/p&gt;" style="verticalAlign=top;align=left;overflow=fill;fontSize=12;fontFamily=Helvetica;html=1;rounded=0;shadow=0;comic=0;labelBackgroundColor=none;strokeWidth=1" vertex="1" parent="1">
          <mxGeometry x="1474" y="946" width="190" height="80" as="geometry" />
        </mxCell>
        <mxCell id="TSDJcPFWtv5Z8IVnVE6S-29" value="&lt;p style=&quot;border-color: var(--border-color); margin: 4px 0px 0px; text-align: center;&quot;&gt;&lt;i style=&quot;border-color: var(--border-color);&quot;&gt;&amp;lt;&amp;lt;Class C#&amp;gt;&amp;gt;&lt;/i&gt;&lt;/p&gt;&lt;p style=&quot;border-color: var(--border-color); margin: 4px 0px 0px; text-align: center;&quot;&gt;&lt;b style=&quot;border-color: var(--border-color);&quot;&gt;OppositeAsynchronizedScheme&lt;/b&gt;&lt;/p&gt;&lt;hr size=&quot;1&quot;&gt;&lt;p style=&quot;border-color: var(--border-color); margin: 0px 0px 0px 4px;&quot;&gt;+OppositeAsynchronizedScheme(roadLanes: HashSet&amp;lt;RoadLanes&amp;gt;):&amp;nbsp;&lt;/p&gt;&lt;p style=&quot;border-color: var(--border-color); margin: 0px 0px 0px 4px;&quot;&gt;OppositeAsynchronizedScheme&lt;/p&gt;&lt;p style=&quot;border-color: var(--border-color); margin: 0px 0px 0px 4px;&quot;&gt;+CheckSystemConditionals(): void&lt;/p&gt;&lt;p style=&quot;border-color: var(--border-color); margin: 0px 0px 0px 4px;&quot;&gt;+CheckSystemPeriodical(): void&lt;/p&gt;&lt;p style=&quot;border-color: var(--border-color); margin: 0px 0px 0px 4px;&quot;&gt;+Clone(): object&lt;/p&gt;" style="verticalAlign=top;align=left;overflow=fill;fontSize=12;fontFamily=Helvetica;html=1;rounded=0;shadow=0;comic=0;labelBackgroundColor=none;strokeWidth=1" vertex="1" parent="1">
          <mxGeometry x="60" y="630" width="380" height="130" as="geometry" />
        </mxCell>
        <mxCell id="TSDJcPFWtv5Z8IVnVE6S-30" value="" style="endArrow=none;html=1;rounded=0;entryX=1;entryY=0.5;entryDx=0;entryDy=0;strokeWidth=2;startArrow=classic;startFill=1;" edge="1" parent="1" target="TSDJcPFWtv5Z8IVnVE6S-3">
          <mxGeometry width="50" height="50" relative="1" as="geometry">
            <mxPoint x="400" y="100" as="sourcePoint" />
            <mxPoint x="-110" y="430" as="targetPoint" />
            <Array as="points">
              <mxPoint x="400" y="60" />
            </Array>
          </mxGeometry>
        </mxCell>
        <mxCell id="TSDJcPFWtv5Z8IVnVE6S-36" value="" style="endArrow=open;html=1;rounded=0;dashed=1;dashPattern=8 8;exitX=-0.014;exitY=0.133;exitDx=0;exitDy=0;endFill=0;entryX=0.5;entryY=1;entryDx=0;entryDy=0;strokeWidth=2;endSize=12;startSize=5;exitPerimeter=0;" edge="1" parent="1" source="TSDJcPFWtv5Z8IVnVE6S-4" target="TSDJcPFWtv5Z8IVnVE6S-1">
          <mxGeometry width="50" height="50" relative="1" as="geometry">
            <mxPoint x="333" y="170" as="sourcePoint" />
            <mxPoint x="348" y="70" as="targetPoint" />
            <Array as="points">
              <mxPoint x="436" y="170" />
            </Array>
          </mxGeometry>
        </mxCell>
        <mxCell id="TSDJcPFWtv5Z8IVnVE6S-39" value="" style="html=1;rounded=0;strokeColor=default;endArrow=diamondThin;endFill=0;strokeWidth=2;endSize=20;jumpSize=6;exitX=0.479;exitY=-0.003;exitDx=0;exitDy=0;entryX=0.649;entryY=1.004;entryDx=0;entryDy=0;entryPerimeter=0;exitPerimeter=0;" edge="1" parent="1" source="TSDJcPFWtv5Z8IVnVE6S-7" target="TSDJcPFWtv5Z8IVnVE6S-4">
          <mxGeometry width="100" relative="1" as="geometry">
            <mxPoint x="328" y="309.58" as="sourcePoint" />
            <mxPoint x="158" y="290" as="targetPoint" />
            <Array as="points">
              <mxPoint x="760" y="330" />
            </Array>
          </mxGeometry>
        </mxCell>
        <mxCell id="TSDJcPFWtv5Z8IVnVE6S-40" value="" style="html=1;rounded=0;strokeColor=default;endArrow=diamondThin;endFill=0;strokeWidth=2;endSize=20;jumpSize=6;entryX=0.001;entryY=0.435;entryDx=0;entryDy=0;entryPerimeter=0;" edge="1" parent="1" target="TSDJcPFWtv5Z8IVnVE6S-7">
          <mxGeometry width="100" relative="1" as="geometry">
            <mxPoint x="450" y="420" as="sourcePoint" />
            <mxPoint x="358" y="400" as="targetPoint" />
            <Array as="points">
              <mxPoint x="450" y="470" />
            </Array>
          </mxGeometry>
        </mxCell>
        <mxCell id="TSDJcPFWtv5Z8IVnVE6S-41" value="" style="html=1;rounded=0;strokeColor=default;endArrow=diamondThin;endFill=0;strokeWidth=2;endSize=20;jumpSize=6;exitX=0.5;exitY=0;exitDx=0;exitDy=0;entryX=0.003;entryY=0.6;entryDx=0;entryDy=0;entryPerimeter=0;" edge="1" parent="1" source="TSDJcPFWtv5Z8IVnVE6S-8" target="TSDJcPFWtv5Z8IVnVE6S-4">
          <mxGeometry width="100" relative="1" as="geometry">
            <mxPoint x="429" y="301" as="sourcePoint" />
            <mxPoint x="570" y="240" as="targetPoint" />
            <Array as="points">
              <mxPoint x="383" y="240" />
            </Array>
          </mxGeometry>
        </mxCell>
        <mxCell id="TSDJcPFWtv5Z8IVnVE6S-42" value="" style="endArrow=block;html=1;rounded=0;exitX=0.5;exitY=0;exitDx=0;exitDy=0;strokeWidth=2;endFill=0;endSize=16;entryX=0.512;entryY=1.002;entryDx=0;entryDy=0;entryPerimeter=0;" edge="1" parent="1" source="TSDJcPFWtv5Z8IVnVE6S-29" target="TSDJcPFWtv5Z8IVnVE6S-10">
          <mxGeometry width="50" height="50" relative="1" as="geometry">
            <mxPoint x="690" y="700" as="sourcePoint" />
            <mxPoint x="240" y="590" as="targetPoint" />
          </mxGeometry>
        </mxCell>
        <mxCell id="TSDJcPFWtv5Z8IVnVE6S-43" value="" style="html=1;rounded=0;strokeColor=default;endArrow=diamondThin;endFill=1;strokeWidth=2;endSize=20;jumpSize=6;exitX=1.001;exitY=0.475;exitDx=0;exitDy=0;exitPerimeter=0;entryX=-0.002;entryY=0.639;entryDx=0;entryDy=0;entryPerimeter=0;" edge="1" parent="1" source="TSDJcPFWtv5Z8IVnVE6S-10" target="TSDJcPFWtv5Z8IVnVE6S-7">
          <mxGeometry width="100" relative="1" as="geometry">
            <mxPoint x="400" y="536" as="sourcePoint" />
            <mxPoint x="570" y="520" as="targetPoint" />
            <Array as="points" />
          </mxGeometry>
        </mxCell>
        <mxCell id="TSDJcPFWtv5Z8IVnVE6S-44" value="" style="html=1;rounded=0;strokeColor=default;endArrow=diamondThin;endFill=1;strokeWidth=2;endSize=20;jumpSize=6;entryX=0.999;entryY=0.325;entryDx=0;entryDy=0;entryPerimeter=0;" edge="1" parent="1" target="TSDJcPFWtv5Z8IVnVE6S-7">
          <mxGeometry width="100" relative="1" as="geometry">
            <mxPoint x="1013" y="550" as="sourcePoint" />
            <mxPoint x="950" y="360" as="targetPoint" />
            <Array as="points">
              <mxPoint x="1013" y="441" />
            </Array>
          </mxGeometry>
        </mxCell>
        <mxCell id="TSDJcPFWtv5Z8IVnVE6S-45" value="" style="html=1;rounded=0;strokeColor=default;endArrow=diamondThin;endFill=1;strokeWidth=2;endSize=20;jumpSize=6;entryX=0.158;entryY=1.026;entryDx=0;entryDy=0;entryPerimeter=0;" edge="1" parent="1">
          <mxGeometry width="100" relative="1" as="geometry">
            <mxPoint x="1120" y="760" as="sourcePoint" />
            <mxPoint x="1120.2400000000002" y="700.9000000000001" as="targetPoint" />
            <Array as="points" />
          </mxGeometry>
        </mxCell>
        <mxCell id="TSDJcPFWtv5Z8IVnVE6S-47" value="" style="html=1;rounded=0;strokeColor=default;endArrow=diamondThin;endFill=1;strokeWidth=2;endSize=20;jumpSize=6;entryX=0;entryY=0.935;entryDx=0;entryDy=0;entryPerimeter=0;" edge="1" parent="1" target="TSDJcPFWtv5Z8IVnVE6S-12">
          <mxGeometry width="100" relative="1" as="geometry">
            <mxPoint x="760" y="960" as="sourcePoint" />
            <mxPoint x="1157" y="614" as="targetPoint" />
            <Array as="points">
              <mxPoint x="760" y="1000" />
            </Array>
          </mxGeometry>
        </mxCell>
        <mxCell id="TSDJcPFWtv5Z8IVnVE6S-49" value="" style="html=1;rounded=0;strokeColor=default;endArrow=diamondThin;endFill=1;strokeWidth=2;endSize=20;jumpSize=6;entryX=0.233;entryY=1.006;entryDx=0;entryDy=0;entryPerimeter=0;exitX=0.43;exitY=1;exitDx=0;exitDy=0;exitPerimeter=0;" edge="1" parent="1" source="TSDJcPFWtv5Z8IVnVE6S-14" target="TSDJcPFWtv5Z8IVnVE6S-12">
          <mxGeometry width="100" relative="1" as="geometry">
            <mxPoint x="1400" y="310" as="sourcePoint" />
            <mxPoint x="1186" y="301" as="targetPoint" />
            <Array as="points">
              <mxPoint x="183" y="1070" />
              <mxPoint x="999" y="1070" />
            </Array>
          </mxGeometry>
        </mxCell>
        <mxCell id="TSDJcPFWtv5Z8IVnVE6S-50" value="" style="html=1;rounded=0;strokeColor=default;endArrow=diamondThin;endFill=0;strokeWidth=2;endSize=20;jumpSize=6;entryX=1;entryY=0.75;entryDx=0;entryDy=0;exitX=0.053;exitY=0.999;exitDx=0;exitDy=0;exitPerimeter=0;" edge="1" parent="1" source="TSDJcPFWtv5Z8IVnVE6S-26" target="TSDJcPFWtv5Z8IVnVE6S-12">
          <mxGeometry width="100" relative="1" as="geometry">
            <mxPoint x="1360" y="800" as="sourcePoint" />
            <mxPoint x="1320" y="620" as="targetPoint" />
            <Array as="points">
              <mxPoint x="1400" y="950" />
            </Array>
          </mxGeometry>
        </mxCell>
        <mxCell id="TSDJcPFWtv5Z8IVnVE6S-51" value="" style="html=1;rounded=0;strokeColor=default;endArrow=diamondThin;endFill=0;strokeWidth=2;endSize=20;jumpSize=6;exitX=1;exitY=0.5;exitDx=0;exitDy=0;" edge="1" parent="1" source="TSDJcPFWtv5Z8IVnVE6S-26">
          <mxGeometry width="100" relative="1" as="geometry">
            <mxPoint x="1559" y="760" as="sourcePoint" />
            <mxPoint x="1610" y="690" as="targetPoint" />
            <Array as="points">
              <mxPoint x="1610" y="845" />
            </Array>
          </mxGeometry>
        </mxCell>
        <mxCell id="TSDJcPFWtv5Z8IVnVE6S-52" value="" style="html=1;rounded=0;strokeColor=default;endArrow=diamondThin;endFill=1;strokeWidth=2;endSize=20;jumpSize=6;exitX=0.871;exitY=0.003;exitDx=0;exitDy=0;exitPerimeter=0;entryX=0.827;entryY=1;entryDx=0;entryDy=0;entryPerimeter=0;" edge="1" parent="1" source="TSDJcPFWtv5Z8IVnVE6S-27" target="TSDJcPFWtv5Z8IVnVE6S-15">
          <mxGeometry width="100" relative="1" as="geometry">
            <mxPoint x="1600" y="700" as="sourcePoint" />
            <mxPoint x="1600" y="650" as="targetPoint" />
            <Array as="points" />
          </mxGeometry>
        </mxCell>
        <mxCell id="TSDJcPFWtv5Z8IVnVE6S-53" value="" style="endArrow=open;html=1;rounded=0;dashed=1;dashPattern=8 8;exitX=-0.001;exitY=0.098;exitDx=0;exitDy=0;endFill=0;strokeWidth=2;endSize=12;startSize=5;exitPerimeter=0;" edge="1" parent="1" source="TSDJcPFWtv5Z8IVnVE6S-6">
          <mxGeometry width="50" height="50" relative="1" as="geometry">
            <mxPoint x="577" y="180" as="sourcePoint" />
            <mxPoint x="507" y="100" as="targetPoint" />
            <Array as="points">
              <mxPoint x="507" y="40" />
            </Array>
          </mxGeometry>
        </mxCell>
        <mxCell id="TSDJcPFWtv5Z8IVnVE6S-55" value="" style="endArrow=open;html=1;rounded=0;dashed=1;dashPattern=8 8;endFill=0;entryX=0.722;entryY=1.004;entryDx=0;entryDy=0;strokeWidth=2;endSize=12;startSize=5;entryPerimeter=0;exitX=1.001;exitY=0.27;exitDx=0;exitDy=0;exitPerimeter=0;" edge="1" parent="1" source="TSDJcPFWtv5Z8IVnVE6S-4" target="TSDJcPFWtv5Z8IVnVE6S-6">
          <mxGeometry width="50" height="50" relative="1" as="geometry">
            <mxPoint x="860" y="190" as="sourcePoint" />
            <mxPoint x="446" y="150" as="targetPoint" />
            <Array as="points">
              <mxPoint x="891" y="190" />
            </Array>
          </mxGeometry>
        </mxCell>
        <mxCell id="TSDJcPFWtv5Z8IVnVE6S-56" value="" style="endArrow=open;html=1;rounded=0;dashed=1;dashPattern=8 8;endFill=0;strokeWidth=2;endSize=12;startSize=5;exitX=0.891;exitY=0.003;exitDx=0;exitDy=0;exitPerimeter=0;" edge="1" parent="1" source="TSDJcPFWtv5Z8IVnVE6S-7">
          <mxGeometry width="50" height="50" relative="1" as="geometry">
            <mxPoint x="871" y="201" as="sourcePoint" />
            <mxPoint x="920" y="130" as="targetPoint" />
            <Array as="points">
              <mxPoint x="920" y="340" />
              <mxPoint x="920" y="320" />
              <mxPoint x="920" y="280" />
              <mxPoint x="920" y="230" />
            </Array>
          </mxGeometry>
        </mxCell>
        <mxCell id="TSDJcPFWtv5Z8IVnVE6S-58" value="" style="html=1;rounded=0;strokeColor=default;endArrow=diamondThin;endFill=1;strokeWidth=2;endSize=20;jumpSize=6;exitX=1;exitY=0.75;exitDx=0;exitDy=0;" edge="1" parent="1" source="TSDJcPFWtv5Z8IVnVE6S-25">
          <mxGeometry width="100" relative="1" as="geometry">
            <mxPoint x="1090" y="914" as="sourcePoint" />
            <mxPoint x="720" y="960" as="targetPoint" />
            <Array as="points">
              <mxPoint x="720" y="1029" />
            </Array>
          </mxGeometry>
        </mxCell>
        <mxCell id="TSDJcPFWtv5Z8IVnVE6S-59" value="" style="endArrow=block;html=1;rounded=0;dashed=1;dashPattern=8 8;endFill=0;strokeWidth=2;endSize=12;startSize=5;exitX=0.5;exitY=1;exitDx=0;exitDy=0;entryX=0.445;entryY=0.978;entryDx=0;entryDy=0;entryPerimeter=0;" edge="1" parent="1" source="TSDJcPFWtv5Z8IVnVE6S-12" target="TSDJcPFWtv5Z8IVnVE6S-2">
          <mxGeometry width="50" height="50" relative="1" as="geometry">
            <mxPoint x="1172.0000000000002" y="1026.27" as="sourcePoint" />
            <mxPoint x="1360" y="980" as="targetPoint" />
            <Array as="points">
              <mxPoint x="1090" y="1060" />
              <mxPoint x="1360" y="1060" />
              <mxPoint x="1360" y="1015" />
            </Array>
          </mxGeometry>
        </mxCell>
        <mxCell id="TSDJcPFWtv5Z8IVnVE6S-61" value="" style="endArrow=block;html=1;rounded=0;dashed=1;dashPattern=8 8;endFill=0;strokeWidth=2;endSize=12;startSize=5;exitX=0;exitY=0.75;exitDx=0;exitDy=0;entryX=0.5;entryY=1;entryDx=0;entryDy=0;" edge="1" parent="1" source="TSDJcPFWtv5Z8IVnVE6S-13" target="TSDJcPFWtv5Z8IVnVE6S-24">
          <mxGeometry width="50" height="50" relative="1" as="geometry">
            <mxPoint x="820.0000000000003" y="1025.27" as="sourcePoint" />
            <mxPoint x="1028" y="1010" as="targetPoint" />
            <Array as="points">
              <mxPoint x="468" y="910" />
            </Array>
          </mxGeometry>
        </mxCell>
        <mxCell id="TSDJcPFWtv5Z8IVnVE6S-63" value="" style="endArrow=block;html=1;rounded=0;dashed=1;dashPattern=8 8;endFill=0;strokeWidth=2;endSize=12;startSize=5;exitX=0;exitY=0.5;exitDx=0;exitDy=0;entryX=0;entryY=0.75;entryDx=0;entryDy=0;" edge="1" parent="1" source="TSDJcPFWtv5Z8IVnVE6S-8" target="5d2195bd80daf111-18">
          <mxGeometry width="50" height="50" relative="1" as="geometry">
            <mxPoint x="1038" y="876" as="sourcePoint" />
            <mxPoint x="1038" y="1020" as="targetPoint" />
            <Array as="points">
              <mxPoint x="40" y="350" />
              <mxPoint x="40" y="780" />
              <mxPoint x="460" y="780" />
              <mxPoint x="460" y="680" />
            </Array>
          </mxGeometry>
        </mxCell>
        <mxCell id="TSDJcPFWtv5Z8IVnVE6S-64" value="" style="endArrow=block;html=1;rounded=0;dashed=1;dashPattern=8 8;endFill=0;strokeWidth=2;endSize=12;startSize=5;entryX=0.897;entryY=-0.05;entryDx=0;entryDy=0;entryPerimeter=0;" edge="1" parent="1" target="5d2195bd80daf111-18">
          <mxGeometry width="50" height="50" relative="1" as="geometry">
            <mxPoint x="990" y="620" as="sourcePoint" />
            <mxPoint x="690" y="690" as="targetPoint" />
            <Array as="points">
              <mxPoint x="980" y="620" />
              <mxPoint x="850" y="620" />
            </Array>
          </mxGeometry>
        </mxCell>
        <mxCell id="TSDJcPFWtv5Z8IVnVE6S-65" value="" style="endArrow=block;html=1;rounded=0;dashed=1;dashPattern=8 8;endFill=0;strokeWidth=2;endSize=12;startSize=5;entryX=1;entryY=0.5;entryDx=0;entryDy=0;" edge="1" parent="1" target="5d2195bd80daf111-18">
          <mxGeometry width="50" height="50" relative="1" as="geometry">
            <mxPoint x="940" y="760" as="sourcePoint" />
            <mxPoint x="860" y="658" as="targetPoint" />
            <Array as="points">
              <mxPoint x="940" y="670" />
            </Array>
          </mxGeometry>
        </mxCell>
        <mxCell id="TSDJcPFWtv5Z8IVnVE6S-66" value="" style="endArrow=block;html=1;rounded=0;dashed=1;dashPattern=8 8;endFill=0;strokeWidth=2;endSize=12;startSize=5;exitX=0.562;exitY=-0.005;exitDx=0;exitDy=0;entryX=0.423;entryY=0.999;entryDx=0;entryDy=0;exitPerimeter=0;entryPerimeter=0;" edge="1" parent="1" source="TSDJcPFWtv5Z8IVnVE6S-13" target="5d2195bd80daf111-18">
          <mxGeometry width="50" height="50" relative="1" as="geometry">
            <mxPoint x="1050" y="625" as="sourcePoint" />
            <mxPoint x="880" y="670" as="targetPoint" />
            <Array as="points">
              <mxPoint x="760" y="720" />
            </Array>
          </mxGeometry>
        </mxCell>
        <mxCell id="TSDJcPFWtv5Z8IVnVE6S-68" value="" style="endArrow=block;html=1;rounded=0;dashed=1;dashPattern=8 8;endFill=0;strokeWidth=2;endSize=12;startSize=5;exitX=0.997;exitY=0.904;exitDx=0;exitDy=0;entryX=0;entryY=0.25;entryDx=0;entryDy=0;exitPerimeter=0;" edge="1" parent="1" source="TSDJcPFWtv5Z8IVnVE6S-10" target="5d2195bd80daf111-18">
          <mxGeometry width="50" height="50" relative="1" as="geometry">
            <mxPoint x="1050" y="625" as="sourcePoint" />
            <mxPoint x="880" y="670" as="targetPoint" />
            <Array as="points">
              <mxPoint x="480" y="581" />
              <mxPoint x="480" y="660" />
            </Array>
          </mxGeometry>
        </mxCell>
        <mxCell id="TSDJcPFWtv5Z8IVnVE6S-69" value="" style="endArrow=block;html=1;rounded=0;dashed=1;dashPattern=8 8;endFill=0;strokeWidth=2;endSize=12;startSize=5;exitX=0.001;exitY=0.8;exitDx=0;exitDy=0;entryX=0.5;entryY=0;entryDx=0;entryDy=0;exitPerimeter=0;" edge="1" parent="1" source="TSDJcPFWtv5Z8IVnVE6S-7" target="5d2195bd80daf111-18">
          <mxGeometry width="50" height="50" relative="1" as="geometry">
            <mxPoint x="410" y="591" as="sourcePoint" />
            <mxPoint x="690" y="670" as="targetPoint" />
            <Array as="points">
              <mxPoint x="540" y="560" />
              <mxPoint x="540" y="590" />
              <mxPoint x="540" y="620" />
              <mxPoint x="775" y="620" />
            </Array>
          </mxGeometry>
        </mxCell>
        <mxCell id="TSDJcPFWtv5Z8IVnVE6S-70" value="" style="endArrow=open;html=1;rounded=0;dashed=1;dashPattern=8 8;endFill=0;strokeWidth=2;endSize=12;startSize=5;exitX=-0.003;exitY=0.27;exitDx=0;exitDy=0;exitPerimeter=0;entryX=1;entryY=0.5;entryDx=0;entryDy=0;" edge="1" parent="1" source="TSDJcPFWtv5Z8IVnVE6S-4" target="TSDJcPFWtv5Z8IVnVE6S-23">
          <mxGeometry width="50" height="50" relative="1" as="geometry">
            <mxPoint x="577" y="200" as="sourcePoint" />
            <mxPoint x="410" y="190" as="targetPoint" />
            <Array as="points">
              <mxPoint x="570" y="190" />
            </Array>
          </mxGeometry>
        </mxCell>
        <mxCell id="TSDJcPFWtv5Z8IVnVE6S-71" value="" style="endArrow=classicThin;html=1;rounded=0;entryX=0;entryY=0.5;entryDx=0;entryDy=0;strokeWidth=2;exitX=0.105;exitY=0.018;exitDx=0;exitDy=0;exitPerimeter=0;endFill=1;" edge="1" parent="1" source="TSDJcPFWtv5Z8IVnVE6S-22" target="TSDJcPFWtv5Z8IVnVE6S-1">
          <mxGeometry width="50" height="50" relative="1" as="geometry">
            <mxPoint x="80" y="250" as="sourcePoint" />
            <mxPoint x="291" y="70" as="targetPoint" />
            <Array as="points">
              <mxPoint x="80" y="120" />
            </Array>
          </mxGeometry>
        </mxCell>
        <mxCell id="TSDJcPFWtv5Z8IVnVE6S-72" value="" style="html=1;rounded=0;strokeColor=default;endArrow=diamondThin;endFill=1;strokeWidth=2;endSize=20;jumpSize=6;exitX=0.421;exitY=1;exitDx=0;exitDy=0;exitPerimeter=0;entryX=0.729;entryY=0.023;entryDx=0;entryDy=0;entryPerimeter=0;" edge="1" parent="1" source="TSDJcPFWtv5Z8IVnVE6S-23" target="TSDJcPFWtv5Z8IVnVE6S-22">
          <mxGeometry width="100" relative="1" as="geometry">
            <mxPoint x="195" y="225" as="sourcePoint" />
            <mxPoint x="140" y="370" as="targetPoint" />
            <Array as="points" />
          </mxGeometry>
        </mxCell>
        <mxCell id="TSDJcPFWtv5Z8IVnVE6S-75" value="" style="html=1;rounded=0;strokeColor=default;endArrow=diamondThin;endFill=1;strokeWidth=2;endSize=20;jumpSize=6;exitX=0.002;exitY=0.181;exitDx=0;exitDy=0;entryX=1;entryY=1;entryDx=0;entryDy=0;exitPerimeter=0;" edge="1" parent="1" source="TSDJcPFWtv5Z8IVnVE6S-13" target="TSDJcPFWtv5Z8IVnVE6S-15">
          <mxGeometry width="100" relative="1" as="geometry">
            <mxPoint x="770" y="970" as="sourcePoint" />
            <mxPoint x="930" y="1008" as="targetPoint" />
            <Array as="points">
              <mxPoint x="30" y="796" />
              <mxPoint x="30" y="1100" />
              <mxPoint x="1680" y="1100" />
            </Array>
          </mxGeometry>
        </mxCell>
        <mxCell id="TSDJcPFWtv5Z8IVnVE6S-77" value="" style="endArrow=open;html=1;rounded=0;endFill=0;strokeWidth=2;endSize=12;startSize=5;" edge="1" parent="1">
          <mxGeometry width="50" height="50" relative="1" as="geometry">
            <mxPoint x="1500" y="510" as="sourcePoint" />
            <mxPoint x="1500" y="410" as="targetPoint" />
            <Array as="points" />
          </mxGeometry>
        </mxCell>
        <mxCell id="TSDJcPFWtv5Z8IVnVE6S-78" value="" style="endArrow=open;html=1;rounded=0;endFill=0;strokeWidth=2;endSize=12;startSize=5;exitX=0.088;exitY=0.003;exitDx=0;exitDy=0;exitPerimeter=0;entryX=0.685;entryY=1;entryDx=0;entryDy=0;entryPerimeter=0;" edge="1" parent="1" source="TSDJcPFWtv5Z8IVnVE6S-26" target="TSDJcPFWtv5Z8IVnVE6S-5">
          <mxGeometry width="50" height="50" relative="1" as="geometry">
            <mxPoint x="1410" y="510" as="sourcePoint" />
            <mxPoint x="1410" y="410" as="targetPoint" />
            <Array as="points" />
          </mxGeometry>
        </mxCell>
        <mxCell id="TSDJcPFWtv5Z8IVnVE6S-79" value="" style="endArrow=open;html=1;rounded=0;endFill=0;strokeWidth=2;endSize=12;startSize=5;exitX=0.999;exitY=0.152;exitDx=0;exitDy=0;exitPerimeter=0;entryX=0.685;entryY=1;entryDx=0;entryDy=0;entryPerimeter=0;" edge="1" parent="1" source="TSDJcPFWtv5Z8IVnVE6S-7">
          <mxGeometry width="50" height="50" relative="1" as="geometry">
            <mxPoint x="1061" y="630" as="sourcePoint" />
            <mxPoint x="1060" y="279" as="targetPoint" />
            <Array as="points">
              <mxPoint x="1000" y="398" />
              <mxPoint x="1000" y="279" />
            </Array>
          </mxGeometry>
        </mxCell>
        <mxCell id="TSDJcPFWtv5Z8IVnVE6S-80" value="" style="endArrow=open;html=1;rounded=0;dashed=1;dashPattern=8 8;endFill=0;strokeWidth=2;endSize=12;startSize=5;" edge="1" parent="1">
          <mxGeometry width="50" height="50" relative="1" as="geometry">
            <mxPoint x="1080" y="550" as="sourcePoint" />
            <mxPoint x="1080" y="410" as="targetPoint" />
            <Array as="points">
              <mxPoint x="1080" y="510" />
            </Array>
          </mxGeometry>
        </mxCell>
        <mxCell id="TSDJcPFWtv5Z8IVnVE6S-81" value="" style="endArrow=open;html=1;rounded=0;dashed=1;dashPattern=8 8;endFill=0;strokeWidth=2;endSize=12;startSize=5;exitX=1.008;exitY=0.178;exitDx=0;exitDy=0;exitPerimeter=0;" edge="1" parent="1" source="TSDJcPFWtv5Z8IVnVE6S-12">
          <mxGeometry width="50" height="50" relative="1" as="geometry">
            <mxPoint x="1300" y="550" as="sourcePoint" />
            <mxPoint x="1300" y="410" as="targetPoint" />
            <Array as="points">
              <mxPoint x="1300" y="805" />
              <mxPoint x="1300" y="510" />
            </Array>
          </mxGeometry>
        </mxCell>
        <mxCell id="TSDJcPFWtv5Z8IVnVE6S-84" value="" style="endArrow=classicThin;html=1;rounded=0;entryX=0.516;entryY=0;entryDx=0;entryDy=0;strokeWidth=2;exitX=0;exitY=0.5;exitDx=0;exitDy=0;endFill=1;entryPerimeter=0;" edge="1" parent="1" source="TSDJcPFWtv5Z8IVnVE6S-10" target="TSDJcPFWtv5Z8IVnVE6S-5">
          <mxGeometry width="50" height="50" relative="1" as="geometry">
            <mxPoint x="90" y="291" as="sourcePoint" />
            <mxPoint x="351" y="130" as="targetPoint" />
            <Array as="points">
              <mxPoint y="524" />
              <mxPoint />
              <mxPoint x="1321" />
            </Array>
          </mxGeometry>
        </mxCell>
      </root>
    </mxGraphModel>
  </diagram>
</mxfile>
